<svg width="570" height="570" viewBox="0 0 570 570" fill="none" xmlns="http://www.w3.org/2000/svg">
<path d="M206.09 241.057C206.09 208.414 232.038 182.467 264.684 182.467H270.543V154.846C270.543 147.313 277.239 140.617 284.773 140.617C292.306 140.617 299.003 147.313 299.003 154.846V182.467H335.833C343.367 182.467 350.063 189.163 350.063 196.696C350.063 204.229 343.367 210.925 335.833 210.925H264.684C247.942 210.925 234.55 224.317 234.55 241.057C234.55 257.797 247.942 271.189 264.684 271.189H304.862C337.507 271.189 363.456 297.136 363.456 329.78C363.456 362.423 337.507 388.37 304.862 388.37H299.003V416.828C299.003 424.361 292.306 431.057 284.773 431.057C277.239 431.057 270.543 424.361 270.543 416.828V388.37H232.875C225.342 388.37 218.646 381.674 218.646 374.141C218.646 366.608 225.342 359.912 232.875 359.912H305.699C322.44 359.912 335.833 346.52 335.833 329.78C335.833 313.04 322.44 299.648 305.699 299.648H265.521C232.038 299.648 206.09 272.864 206.09 241.057ZM66.3011 467.885C-28.2863 355.727 -20.7527 188.326 83.0423 83.7004C136.614 30.1322 208.601 0 284.773 0C360.945 0 432.095 29.2951 486.504 83.7004C597.832 195.022 597.832 375.815 486.504 486.3C431.258 541.542 358.434 570 284.773 570C238.735 570 191.86 558.282 149.17 535.683C110.665 563.304 73.8347 570 47.8859 570C38.6783 570 31.1448 569.163 25.2854 568.326C14.4037 566.652 6.03311 558.282 4.359 547.401C2.68489 536.52 8.54433 526.476 17.752 521.454C41.1895 509.736 57.0935 487.136 66.3011 467.885ZM93.087 455.33C95.5982 457.841 96.4352 460.352 96.4352 463.7C97.2723 467.048 97.2722 469.559 95.5981 472.908C86.3905 494.67 68.8124 523.128 42.0265 540.705C62.953 541.542 98.9464 538.194 135.777 509.736L136.614 508.899C140.799 503.877 148.333 503.04 154.192 506.388C254.639 565.815 382.709 549.075 464.74 466.212C513.289 417.665 540.075 353.216 540.075 285.419C540.075 216.784 513.289 152.335 464.74 104.626C416.191 56.0793 351.737 29.2952 283.936 29.2952C215.297 29.2952 150.844 56.0793 103.132 104.626C7.70726 200.044 3.522 354.053 93.087 455.33Z" fill="white"/>
<path fill-rule="evenodd" clip-rule="evenodd" d="M93.087 455.33C95.5982 457.841 96.4352 460.352 96.4352 463.7C97.2723 467.048 97.2722 469.559 95.5981 472.908C86.3905 494.67 68.8124 523.128 42.0265 540.705C62.953 541.542 98.9464 538.194 135.777 509.736L136.614 508.899C140.799 503.877 148.333 503.04 154.192 506.388C254.639 565.815 382.709 549.075 464.74 466.212C513.289 417.665 540.075 353.216 540.075 285.419C540.075 216.784 513.289 152.335 464.74 104.626C416.191 56.0793 351.737 29.2952 283.936 29.2952C215.297 29.2952 150.844 56.0793 103.132 104.626C7.70726 200.044 3.522 354.053 93.087 455.33ZM264.684 182.467C232.038 182.467 206.09 208.414 206.09 241.057C206.09 272.864 232.038 299.648 265.521 299.648H305.699C322.44 299.648 335.833 313.04 335.833 329.78C335.833 346.52 322.44 359.912 305.699 359.912H232.875C225.342 359.912 218.646 366.608 218.646 374.141C218.646 381.674 225.342 388.37 232.875 388.37H270.543V416.828C270.543 424.361 277.239 431.057 284.773 431.057C292.306 431.057 299.003 424.361 299.003 416.828V388.37H304.862C337.507 388.37 363.456 362.423 363.456 329.78C363.456 297.136 337.507 271.189 304.862 271.189H264.684C247.942 271.189 234.55 257.797 234.55 241.057C234.55 224.317 247.942 210.925 264.684 210.925H335.833C343.367 210.925 350.063 204.229 350.063 196.696C350.063 189.163 343.367 182.467 335.833 182.467H299.003V154.846C299.003 147.313 292.306 140.617 284.773 140.617C277.239 140.617 270.543 147.313 270.543 154.846V182.467H264.684Z" fill="#1D3A70"/>
</svg>
