<svg width="74" height="77" viewBox="0 0 74 77" fill="none" xmlns="http://www.w3.org/2000/svg">
<path fill-rule="evenodd" clip-rule="evenodd" d="M0.043457 20.3894C6.76044 7.94425 19.9313 0 34.4506 0C55.9752 0 73.4284 17.2419 73.4284 38.5C73.4284 59.7599 55.9726 77 34.4506 77C19.9469 77 6.76738 69.0695 0.0443257 56.6115V53.4528C6.03977 66.9005 19.5189 75.6184 34.4506 75.6184C55.2024 75.6184 72.0304 58.9966 72.0304 38.5C72.0304 18.0026 55.2024 1.38079 34.4506 1.38079C19.4989 1.38079 6.03195 10.1184 0.0443257 23.5472V20.3894H0.043457Z" fill="white"/>
<path fill-rule="evenodd" clip-rule="evenodd" d="M53.6924 27.6458C49.5516 10.7401 28.9743 1.747 13.038 10.9357C11.7287 11.6904 9.81671 12.9528 6.0293 16.9545C9.18982 13.0146 11.5237 11.4408 12.7801 10.4906C18.7877 5.94854 26.3001 3.25043 34.4506 3.25043C44.3055 3.25043 53.227 7.19554 59.6853 13.5746C66.1426 19.9537 70.1376 28.7659 70.1376 38.5C70.1376 45.3602 68.2473 51.8225 64.7204 57.1792C63.6142 58.8602 61.2247 60.6569 57.7368 60.6569C52.9961 60.6569 49.1522 56.8851 49.1522 52.2316C49.1522 50.0395 50.0048 48.0429 51.4028 46.5446C55.732 39.9443 54.7057 31.7865 53.6924 27.6458Z" fill="white"/>
<path fill-rule="evenodd" clip-rule="evenodd" d="M25.905 18.6106C7.1407 12.9022 0.846569 28.1861 0 32.181C0.477552 28.464 1.33801 26.572 1.7626 25.4888C3.79176 20.307 7.4637 15.7324 12.5613 12.6406C18.7252 8.90222 25.8069 8.03944 32.2729 9.66723C38.739 11.295 44.5903 15.4125 48.2944 21.6338C50.0205 24.5334 51.4913 28.6038 51.7457 30.6998C51.8482 31.5454 51.9455 32.102 51.9455 32.8019C51.9455 37.1252 48.5627 40.6295 44.3897 40.6295C40.2168 40.6295 36.834 37.1252 36.834 32.8019C36.7697 32.6115 36.7419 32.5412 36.7576 32.464C35.6931 26.0257 29.7836 19.7907 25.905 18.6106Z" fill="white"/>
<path fill-rule="evenodd" clip-rule="evenodd" d="M15.2259 32.7684C6.88701 26.5677 1.01486 34.548 0.938451 37.705C0.882013 35.3139 1.12687 33.837 1.2901 33.0926C2.0976 29.4134 4.0764 25.9691 7.17527 23.3679C10.9228 20.2221 15.5958 18.9357 20.1299 19.3156C25.2927 19.7487 29.1227 23.1158 29.1227 27.4708C29.1227 31.8259 25.5489 35.3559 21.1398 35.3559C18.7954 35.3568 16.6864 34.3585 15.2259 32.7684Z" fill="white"/>
</svg>
