<svg width="350" height="350" viewBox="0 0 350 350" fill="none" xmlns="http://www.w3.org/2000/svg">
<path d="M90.0689 242.375C112.161 255.213 141.869 257.285 166.593 251.041C179.011 247.898 188.237 241.339 198.94 235.095C213.934 226.338 225.148 227.262 241.941 226.268C290.822 223.384 304.801 176.358 299.544 143.787C293.16 104.181 256.984 72.9539 213.696 69.6429C184.555 67.4169 157.633 71.4839 134.82 83.9369C117.012 93.6599 114.989 108.997 112.084 126.763C109.865 140.322 108.451 155.463 100.107 167.195C92.4698 177.926 81.3749 171.731 71.6589 179.095C46.8999 197.771 71.4629 231.56 90.0689 242.375Z" fill="#1D3A70"/>
<path opacity="0.9" d="M90.0689 242.375C112.161 255.213 141.869 257.285 166.593 251.041C179.011 247.898 188.237 241.339 198.94 235.095C213.934 226.338 225.148 227.262 241.941 226.268C290.822 223.384 304.801 176.358 299.544 143.787C293.16 104.181 256.984 72.9539 213.696 69.6429C184.555 67.4169 157.633 71.4839 134.82 83.9369C117.012 93.6599 114.989 108.997 112.084 126.763C109.865 140.322 108.451 155.463 100.107 167.195C92.4698 177.926 81.3749 171.731 71.6589 179.095C46.8999 197.771 71.4629 231.56 90.0689 242.375Z" fill="white"/>
<path d="M175 299.292C249.958 299.292 310.723 295.745 310.723 291.368C310.723 286.992 249.958 283.444 175 283.444C100.042 283.444 39.2769 286.992 39.2769 291.368C39.2769 295.745 100.042 299.292 175 299.292Z" fill="#F5F5F5"/>
<path d="M116.571 79.7579L116.13 79.2119C119.205 76.717 122.406 74.3806 125.72 72.2119L126.105 72.7999C122.81 74.9546 119.628 77.277 116.571 79.7579Z" fill="#263238"/>
<path d="M111.405 84.1746L110.929 83.6566C111.867 82.8096 112.833 81.9626 113.792 81.1436L114.247 81.6826C113.288 82.4946 112.336 83.3346 111.405 84.1746Z" fill="#263238"/>
<path d="M188.932 169.604C222.443 140.247 232.842 97.3085 212.159 73.6989C191.476 50.0893 147.542 54.7489 114.031 84.1063C80.5201 113.464 70.121 156.402 90.8042 180.012C111.487 203.621 155.421 198.962 188.932 169.604Z" fill="#263238"/>
<path d="M183.969 163.939C213.039 138.472 222.061 101.223 204.119 80.7426C186.177 60.262 148.065 64.3046 118.995 89.772C89.9239 115.239 80.9024 152.488 98.8444 172.968C116.787 193.449 154.898 189.406 183.969 163.939Z" fill="white"/>
<path d="M166.005 72.7226C135.702 75.1796 104.636 101.423 96.6138 131.285L206.353 122.402C214.375 92.5116 196.308 70.2726 166.005 72.7226Z" fill="#5063BF"/>
<path opacity="0.7" d="M96.5996 131.285L151.473 126.84L122.955 91.7002C110.397 102.312 100.625 116.34 96.5996 131.285Z" fill="white"/>
<path opacity="0.4" d="M166.005 72.7227C150.857 73.9547 135.513 81.1227 122.955 91.7137L151.487 126.84L166.005 72.7227Z" fill="white"/>
<path opacity="0.1" d="M166.005 72.7225L151.487 126.84L200.55 85.4345C193.249 76.4465 181.16 71.4975 166.005 72.7225Z" fill="white"/>
<path d="M164.733 141.982C176.595 131.591 180.277 116.395 172.958 108.04C165.639 99.6855 150.091 101.337 138.229 111.728C126.368 122.119 122.685 137.316 130.004 145.67C137.323 154.025 152.872 152.374 164.733 141.982Z" fill="white"/>
<path d="M159.217 135.686C166.138 129.623 168.285 120.754 164.013 115.878C159.741 111.001 150.667 111.963 143.746 118.026C136.825 124.089 134.678 132.957 138.95 137.834C143.222 142.71 152.296 141.749 159.217 135.686Z" fill="#263238"/>
<path d="M192.556 97.8945C179.501 102.824 167.122 109.386 155.715 117.425L160.874 126.665C172.539 118.366 183.174 108.708 192.556 97.8945Z" fill="#263238"/>
<path d="M102.9 151.942C102.737 151.95 102.574 151.921 102.425 151.856C102.275 151.791 102.143 151.692 102.038 151.567C101.933 151.442 101.858 151.295 101.819 151.137C101.781 150.978 101.779 150.813 101.815 150.654C101.896 150.26 102.1 149.902 102.396 149.63C102.693 149.359 103.068 149.188 103.467 149.142L163.8 144.361C163.97 144.335 164.145 144.351 164.307 144.407C164.47 144.464 164.617 144.56 164.734 144.686C164.851 144.813 164.936 144.966 164.981 145.132C165.025 145.299 165.028 145.474 164.99 145.642C164.911 146.035 164.709 146.392 164.413 146.663C164.117 146.933 163.743 147.103 163.345 147.147L103.061 151.935L102.9 151.942Z" fill="#1D3A70"/>
<path d="M155.085 157.682C154.922 157.692 154.758 157.663 154.608 157.598C154.458 157.534 154.325 157.435 154.219 157.31C154.114 157.185 154.039 157.037 154.001 156.878C153.963 156.719 153.963 156.553 154 156.394C154.08 156 154.283 155.642 154.58 155.371C154.877 155.1 155.252 154.931 155.652 154.889L175.252 153.328C175.423 153.3 175.598 153.315 175.762 153.372C175.926 153.428 176.073 153.523 176.191 153.65C176.309 153.776 176.395 153.93 176.44 154.097C176.485 154.264 176.488 154.44 176.449 154.609C176.369 155.003 176.166 155.362 175.869 155.633C175.572 155.905 175.197 156.076 174.797 156.121L155.197 157.675L155.085 157.682Z" fill="#1D3A70"/>
<path d="M55.4048 182.756C55.2419 182.765 55.0793 182.735 54.9297 182.67C54.7801 182.605 54.6476 182.506 54.5425 182.382C54.4375 182.257 54.3627 182.11 54.324 181.951C54.2854 181.793 54.2839 181.627 54.3198 181.468C54.4029 181.071 54.6108 180.711 54.913 180.44C55.2152 180.17 55.596 180.003 55.9998 179.963L75.5998 178.402C75.7704 178.377 75.9447 178.393 76.1077 178.45C76.2706 178.507 76.4173 178.602 76.5351 178.728C76.6529 178.854 76.7383 179.007 76.7839 179.173C76.8295 179.34 76.8339 179.515 76.7968 179.683C76.7169 180.077 76.5148 180.435 76.2194 180.706C75.924 180.978 75.5503 181.149 75.1518 181.195L55.5518 182.749L55.4048 182.756Z" fill="#1D3A70"/>
<path d="M72.863 171.297C72.7003 171.306 72.5378 171.276 72.3884 171.211C72.2389 171.146 72.1067 171.047 72.0021 170.922C71.8975 170.797 71.8235 170.65 71.7858 170.491C71.7481 170.333 71.7478 170.168 71.785 170.009C71.8652 169.617 72.0676 169.26 72.3631 168.989C72.6586 168.719 73.032 168.549 73.43 168.504L132.23 163.835C132.401 163.809 132.575 163.826 132.738 163.882C132.901 163.939 133.047 164.035 133.165 164.161C133.283 164.287 133.368 164.44 133.414 164.606C133.46 164.773 133.464 164.948 133.427 165.116C133.346 165.51 133.142 165.868 132.846 166.139C132.549 166.411 132.174 166.582 131.775 166.628L72.975 171.29L72.863 171.297Z" fill="#1D3A70"/>
<path d="M199.073 234.157L201.565 239.19L213.892 234.759L211.4 229.726L199.073 234.157Z" fill="#FFBE9D"/>
<path d="M139.139 275.548L142.884 279.741L152.404 268.926L147.791 265.72L139.139 275.548Z" fill="#FFBE9D"/>
<path d="M143.738 279.299L141.19 272.936C141.15 272.835 141.075 272.75 140.979 272.698C140.883 272.646 140.772 272.628 140.665 272.649L135.688 273.699C135.565 273.726 135.45 273.78 135.351 273.856C135.251 273.933 135.17 274.031 135.112 274.142C135.055 274.254 135.023 274.377 135.018 274.502C135.014 274.628 135.037 274.753 135.086 274.868C135.94 276.898 136.654 278.368 137.683 280.916C138.32 282.505 140.07 287.356 140.952 289.547C141.834 291.738 144.067 291.066 143.906 290.079C143.157 285.676 143.136 282.113 143.759 280.314C143.879 279.985 143.872 279.623 143.738 279.299Z" fill="#263238"/>
<path d="M202.132 238.867L199.409 233.365C199.359 233.267 199.277 233.188 199.177 233.141C199.077 233.094 198.964 233.082 198.856 233.106L193.886 234.331C193.765 234.359 193.651 234.414 193.555 234.492C193.458 234.57 193.381 234.67 193.329 234.783C193.276 234.896 193.251 235.019 193.254 235.144C193.257 235.268 193.289 235.39 193.347 235.5C194.362 237.467 195.895 240.274 197.134 242.766C198.576 245.685 198.772 245.776 200.466 249.192C201.488 251.257 203.861 250.802 203.623 249.843C202.531 245.475 201.922 244.719 202.342 240.274C202.403 239.795 202.331 239.308 202.132 238.867Z" fill="#263238"/>
<path d="M250.6 143.667C250.341 145.487 250.061 147.447 249.844 149.344C249.627 151.241 249.41 153.173 249.249 155.084C248.878 158.819 248.766 162.576 248.913 166.326C248.913 166.781 248.955 167.236 249.011 167.663L249.137 168.909C249.136 169.279 249.25 169.639 249.465 169.939C249.68 170.24 249.984 170.465 250.334 170.582C250.969 170.873 251.64 171.075 252.329 171.184C254.053 171.44 255.799 171.506 257.537 171.38C258.454 171.317 259.392 171.247 260.337 171.135C261.282 171.023 262.241 170.876 263.137 170.743L264.495 174.74C263.527 175.195 262.537 175.599 261.527 175.951C260.53 176.322 259.513 176.64 258.482 176.903C257.425 177.183 256.352 177.401 255.269 177.554C254.125 177.73 252.968 177.805 251.811 177.778C250.512 177.763 249.221 177.567 247.975 177.197C246.457 176.737 245.076 175.907 243.957 174.782C242.792 173.562 241.988 172.043 241.633 170.393C241.584 170.176 241.563 170.057 241.542 169.917L241.472 169.511L241.325 168.685C241.22 168.139 241.15 167.6 241.087 167.061C240.632 162.877 240.543 158.661 240.821 154.461C240.954 152.403 241.101 150.359 241.353 148.329C241.605 146.299 241.85 144.304 242.242 142.197L250.6 143.667Z" fill="#FFBE9D"/>
<path d="M241.633 138.599C237.951 142.512 239.435 152.389 239.435 152.389L249.781 153.999C249.781 153.999 252.182 148.399 251.279 142.624C250.173 135.61 245.658 134.294 241.633 138.599Z" fill="#1D3A70"/>
<path opacity="0.2" d="M245 142.933C243.292 140.735 241.5 139.951 240.548 140.133C238.259 144.62 239.421 152.362 239.421 152.362L246.75 153.552C247.59 151.277 247.695 146.37 245 142.933Z" fill="black"/>
<path d="M261.758 171.353L267.757 167.419L269.087 173.509C269.087 173.509 265.356 177.289 262.248 174.622L261.758 171.353Z" fill="#FFBE9D"/>
<path d="M271.446 166.103L272.139 171.367L269.087 173.509L267.75 167.419L271.446 166.103Z" fill="#FFBE9D"/>
<path opacity="0.2" d="M213.885 234.766L207.536 237.048L205.044 232.008L211.393 229.726L213.885 234.766Z" fill="black"/>
<path opacity="0.2" d="M147.791 265.72L152.404 268.926L147.938 273.994L143.325 270.781L147.791 265.72Z" fill="black"/>
<path d="M220.318 125.097C216.062 146.874 204.729 166.523 203.147 170.863C207.207 172.564 222.53 178.948 230.881 182.427C246.456 159.25 248.843 142.478 249.2 138.418C249.225 138.128 249.174 137.836 249.051 137.572C248.928 137.308 248.738 137.08 248.5 136.913C247.835 136.43 246.771 135.674 245.476 134.813C244.776 134.365 244.027 133.896 243.222 133.413C242.781 133.154 242.326 132.902 241.864 132.657C238.029 130.799 234.091 129.163 230.069 127.757C229.313 127.484 228.536 127.218 227.773 126.98C227.01 126.742 226.373 126.553 225.708 126.371C222.726 125.573 220.318 125.097 220.318 125.097Z" fill="#1D3A70"/>
<path d="M236.992 156.149L238.525 156.541C237.514 157.519 236.282 158.239 234.934 158.641C233.394 159.102 231.755 159.126 230.202 158.711C228.827 158.43 227.569 157.742 226.59 156.737C226.178 156.272 225.864 155.729 225.669 155.139C225.474 154.549 225.402 153.926 225.456 153.307C225.558 151.836 225.973 150.404 226.674 149.107C227.488 147.522 228.583 146.098 229.908 144.907C231.101 143.788 232.54 142.963 234.108 142.499C235.519 142.095 237.011 142.07 238.434 142.429C239.518 142.662 240.499 143.236 241.234 144.067C241.913 144.888 242.258 145.936 242.2 147C242.147 148.225 241.814 149.423 241.227 150.5C240.487 151.936 239.414 153.175 238.098 154.112C236.397 155.337 234.808 155.757 233.338 155.386C233.184 155.364 233.035 155.311 232.902 155.23C232.768 155.15 232.652 155.043 232.561 154.917C232.453 154.654 232.453 154.36 232.561 154.098C231.835 154.563 230.958 154.731 230.111 154.567C229.747 154.494 229.412 154.316 229.148 154.055C228.885 153.793 228.703 153.46 228.627 153.097C228.463 152.14 228.654 151.157 229.166 150.332C229.839 149.012 230.795 147.858 231.966 146.951C233.413 145.817 234.736 145.399 235.935 145.698C236.314 145.761 236.656 145.962 236.896 146.261C237.136 146.561 237.258 146.938 237.237 147.322L237.895 146.433L239.792 146.916L235.592 152.691C235.417 152.914 235.256 153.148 235.109 153.391C235.048 153.495 235.019 153.614 235.025 153.734C235.032 153.771 235.05 153.805 235.076 153.833C235.102 153.86 235.135 153.879 235.172 153.888C235.57 153.913 235.967 153.821 236.313 153.622C237.093 153.288 237.805 152.814 238.413 152.222C239.063 151.617 239.607 150.907 240.023 150.122C240.359 149.555 240.578 148.927 240.666 148.273C240.754 147.62 240.709 146.956 240.534 146.321C240.156 145.173 239.204 144.408 237.678 144.025C236.435 143.696 235.123 143.73 233.898 144.123C232.618 144.549 231.456 145.268 230.503 146.223C229.492 147.198 228.646 148.33 227.997 149.576C227.422 150.631 227.112 151.811 227.094 153.013C227.079 153.506 227.164 153.998 227.345 154.458C227.525 154.917 227.797 155.335 228.144 155.687C228.931 156.416 229.897 156.924 230.944 157.157C232.003 157.441 233.108 157.502 234.192 157.339C235.202 157.156 236.159 156.749 236.992 156.149ZM231 150.724C230.687 151.221 230.533 151.803 230.559 152.39C230.577 152.567 230.65 152.734 230.768 152.867C230.886 153 231.043 153.093 231.217 153.132C231.511 153.201 231.819 153.186 232.106 153.09C232.394 152.996 232.668 152.862 232.918 152.691C233.457 152.316 233.941 151.865 234.353 151.354C234.828 150.812 235.239 150.218 235.578 149.583C235.865 149.118 235.995 148.573 235.949 148.029C235.927 147.845 235.848 147.673 235.722 147.537C235.596 147.401 235.431 147.309 235.249 147.273C234.753 147.182 234.242 147.279 233.814 147.546C233.192 147.904 232.645 148.379 232.204 148.946C231.742 149.495 231.338 150.091 231 150.724Z" fill="white"/>
<path d="M236.803 115.114C235.97 119.216 233.814 126.482 230.104 127.903C231.308 130.815 233.016 134.308 237.461 136.345C241.906 138.382 242.403 134.945 241.892 132.845C238.084 130.045 239.505 126.979 241.465 124.34L236.803 115.114Z" fill="#FFBE9D"/>
<path opacity="0.2" d="M238.7 118.866L241.458 124.305C240.99 124.915 240.577 125.567 240.226 126.251C238.707 125.341 237.223 122.639 237.755 120.875C237.946 120.154 238.266 119.473 238.7 118.866Z" fill="black"/>
<path d="M247.996 115.269C252.385 115.591 256.27 104.642 249.865 103.368C245.546 102.507 245.588 105.09 245.133 107.919C244.678 110.747 245.217 115.066 247.996 115.269Z" fill="#263238"/>
<path d="M237.3 109.724C236.173 115.184 235.235 118.32 237.195 121.82C240.149 127.077 247.443 126.419 250.187 121.407C252.651 116.892 254.086 108.723 249.41 105.153C248.382 104.362 247.17 103.847 245.887 103.656C244.604 103.465 243.294 103.606 242.081 104.063C240.868 104.521 239.791 105.282 238.955 106.273C238.118 107.263 237.548 108.451 237.3 109.724Z" fill="#FFBE9D"/>
<path d="M236.369 113.631C240.758 113.953 243.698 103.943 237.293 102.662C232.974 101.801 232.61 104.328 232.68 107.03C232.75 109.9 233.583 113.4 236.369 113.631Z" fill="#263238"/>
<path d="M239.911 105.973C242.872 107.408 257.145 110.481 256.326 104.342C255.507 98.2025 247.884 95.3535 247.884 95.3535C247.884 95.3535 252.322 100.219 248.661 99.0495C245 97.8805 243.95 97.0265 239.561 96.2495C239.561 96.2495 243.873 99.8265 238.861 98.8185C235.954 98.1916 232.917 98.676 230.349 100.177C231.623 101.033 232.639 102.219 233.29 103.609C233.941 104.999 234.202 106.539 234.045 108.066C233.702 113.463 239.911 105.973 239.911 105.973Z" fill="#263238"/>
<path d="M233.8 113.89C233.993 115.16 234.676 116.304 235.704 117.075C237.048 118.062 238.273 116.928 238.364 115.29C238.441 113.813 237.839 111.517 236.264 111.188C234.689 110.859 233.59 112.308 233.8 113.89Z" fill="#FFBE9D"/>
<path d="M212.744 174.866L206.906 193.668L236.957 212.568C231.77 221.22 205.415 229.83 205.415 229.83L209.615 238.356C209.615 238.356 246.316 235.556 253.757 219.33C260.918 203.748 230.867 182.426 230.867 182.426L212.744 174.866Z" fill="#263238"/>
<path opacity="0.2" d="M216.643 199.794L211.4 196.511L217.854 187.131C217.854 187.131 218.036 194.649 216.643 199.794Z" fill="black"/>
<path opacity="0.2" d="M216.643 199.794L211.4 196.511L217.854 187.131C217.854 187.131 218.036 194.649 216.643 199.794Z" fill="black"/>
<path d="M224.371 179.718C224.371 179.718 200.137 220.024 190.134 233.1C179.179 247.422 150.815 274.4 150.815 274.4L142.366 268.52C142.366 268.52 166.866 241.514 176.099 226.569C186.634 209.545 203.147 170.849 203.147 170.849L224.371 179.718Z" fill="#263238"/>
<path d="M151.697 275.295L141.75 268.379L143.815 265.404L155.071 272.943L151.697 275.295Z" fill="#1D3A70"/>
<path d="M209.965 239.525L204.932 229.368L208.215 227.744L214.011 239.014L209.965 239.525Z" fill="#1D3A70"/>
<path d="M245.049 113.442C244.93 113.876 245.049 114.296 245.35 114.373C245.651 114.45 245.966 114.163 246.085 113.722C246.204 113.281 246.085 112.868 245.777 112.791C245.469 112.714 245.168 113.008 245.049 113.442Z" fill="#263238"/>
<path d="M249.991 114.799C249.872 115.24 249.991 115.653 250.292 115.73C250.593 115.807 250.908 115.52 251.027 115.079C251.146 114.638 251.027 114.225 250.726 114.148C250.425 114.071 250.11 114.351 249.991 114.799Z" fill="#263238"/>
<path d="M248.36 114.575C248.518 116.055 248.879 117.506 249.431 118.887C249.073 119.019 248.691 119.07 248.312 119.039C247.932 119.008 247.564 118.894 247.233 118.705L248.36 114.575Z" fill="#FF5652"/>
<path d="M245.077 119.378C244.603 119.188 244.172 118.904 243.811 118.543C243.45 118.182 243.167 117.752 242.977 117.278C242.968 117.243 242.973 117.207 242.99 117.176C243.006 117.145 243.035 117.121 243.068 117.11C243.102 117.1 243.137 117.104 243.168 117.119C243.199 117.135 243.224 117.161 243.236 117.194C243.451 117.711 243.785 118.171 244.21 118.536C244.636 118.901 245.142 119.161 245.686 119.294C245.704 119.297 245.72 119.304 245.735 119.314C245.75 119.324 245.762 119.337 245.771 119.352C245.781 119.367 245.787 119.384 245.789 119.402C245.791 119.42 245.789 119.438 245.784 119.455C245.779 119.472 245.771 119.488 245.76 119.502C245.749 119.516 245.735 119.527 245.719 119.536C245.704 119.544 245.687 119.549 245.669 119.551C245.651 119.553 245.633 119.551 245.616 119.546C245.433 119.503 245.253 119.446 245.077 119.378Z" fill="#263238"/>
<path d="M243.957 111.433C243.916 111.413 243.88 111.384 243.852 111.349C243.83 111.322 243.814 111.29 243.804 111.257C243.795 111.223 243.793 111.188 243.797 111.153C243.802 111.118 243.813 111.085 243.831 111.055C243.849 111.025 243.873 110.999 243.901 110.978C244.229 110.711 244.617 110.527 245.031 110.441C245.445 110.354 245.873 110.368 246.281 110.481C246.347 110.506 246.401 110.556 246.431 110.62C246.461 110.684 246.465 110.757 246.442 110.824C246.418 110.889 246.37 110.943 246.307 110.973C246.244 111.003 246.172 111.007 246.106 110.985C245.782 110.898 245.442 110.891 245.114 110.963C244.787 111.034 244.481 111.184 244.223 111.398C244.185 111.426 244.141 111.443 244.094 111.449C244.048 111.456 244.001 111.45 243.957 111.433Z" fill="#263238"/>
<path d="M252.581 113.665C252.541 113.648 252.506 113.621 252.479 113.587C252.452 113.553 252.434 113.512 252.427 113.469C252.375 113.139 252.246 112.825 252.048 112.555C251.851 112.285 251.592 112.065 251.293 111.915C251.258 111.904 251.226 111.886 251.199 111.861C251.171 111.837 251.149 111.807 251.134 111.774C251.118 111.74 251.11 111.704 251.109 111.668C251.109 111.631 251.116 111.595 251.13 111.561C251.144 111.527 251.165 111.496 251.191 111.471C251.217 111.445 251.249 111.426 251.283 111.413C251.318 111.4 251.354 111.395 251.391 111.397C251.428 111.399 251.463 111.409 251.496 111.425C251.876 111.61 252.206 111.883 252.458 112.221C252.71 112.56 252.877 112.955 252.945 113.371C252.952 113.405 252.952 113.441 252.945 113.475C252.939 113.509 252.925 113.541 252.905 113.57C252.886 113.599 252.861 113.623 252.831 113.642C252.802 113.661 252.769 113.674 252.735 113.679C252.684 113.693 252.629 113.688 252.581 113.665Z" fill="#263238"/>
<path d="M143.535 281.449C143.358 280.981 143.236 280.495 143.171 280C143.167 279.973 143.171 279.945 143.182 279.92C143.193 279.895 143.211 279.874 143.234 279.86C143.255 279.845 143.279 279.837 143.304 279.837C143.329 279.837 143.354 279.845 143.374 279.86C143.57 279.993 145.257 281.218 145.201 281.925C145.193 282.004 145.166 282.079 145.12 282.144C145.075 282.209 145.014 282.261 144.942 282.296C144.827 282.359 144.699 282.392 144.568 282.392C144.437 282.392 144.308 282.359 144.193 282.296C143.885 282.096 143.653 281.797 143.535 281.449ZM143.5 280.28C143.675 281.246 143.983 281.911 144.333 282.093C144.413 282.132 144.501 282.149 144.59 282.143C144.678 282.137 144.764 282.107 144.837 282.058C144.935 282.016 144.949 281.96 144.949 281.918C144.97 281.554 144.144 280.791 143.5 280.28Z" fill="#1D3A70"/>
<path d="M143.178 280C143.172 279.983 143.168 279.964 143.169 279.945C143.17 279.927 143.174 279.908 143.182 279.891C143.19 279.874 143.201 279.859 143.215 279.846C143.228 279.834 143.245 279.824 143.262 279.818C143.325 279.818 144.851 279.258 145.586 279.643C145.676 279.688 145.755 279.752 145.818 279.831C145.881 279.909 145.926 280 145.95 280.098C145.988 280.193 145.992 280.298 145.963 280.395C145.934 280.493 145.873 280.578 145.789 280.637C145.264 281.001 143.689 280.462 143.213 280.056C143.198 280.04 143.186 280.021 143.178 280ZM145.677 280.119C145.634 280.019 145.558 279.937 145.46 279.888C144.846 279.73 144.198 279.766 143.605 279.993C144.221 280.35 145.334 280.63 145.649 280.413C145.649 280.413 145.74 280.35 145.698 280.182L145.677 280.119Z" fill="#1D3A70"/>
<path d="M201.684 239.708C201.68 239.684 201.683 239.659 201.693 239.636C201.703 239.614 201.719 239.595 201.74 239.582C201.763 239.567 201.789 239.559 201.817 239.559C201.844 239.559 201.871 239.567 201.894 239.582C202.125 239.757 204.148 241.269 204.113 242.053C204.11 242.125 204.088 242.195 204.05 242.256C204.012 242.317 203.959 242.368 203.896 242.403C203.795 242.474 203.677 242.517 203.554 242.528C203.431 242.539 203.308 242.518 203.196 242.466C202.433 242.158 201.915 240.618 201.677 239.729L201.684 239.708ZM203.847 241.983C203.791 241.542 202.825 240.653 202.048 240.037C202.419 241.241 202.874 242.046 203.301 242.221C203.374 242.252 203.454 242.264 203.534 242.257C203.613 242.25 203.689 242.223 203.756 242.179C203.783 242.167 203.807 242.148 203.823 242.123C203.839 242.098 203.848 242.068 203.847 242.039V241.983Z" fill="#1D3A70"/>
<path d="M220.535 134.624L218.323 133.147C217.56 132.65 216.783 132.167 216.006 131.684C214.445 130.725 212.863 129.815 211.267 128.94C209.671 128.065 208.054 127.267 206.423 126.553C205.611 126.182 204.792 125.853 203.973 125.538L202.748 125.104L202.44 124.999L202.286 124.943C202.286 124.943 202.237 124.943 202.174 124.894C201.586 124.844 200.995 124.879 200.417 124.999C199.612 125.146 198.817 125.345 198.037 125.594C196.319 126.141 194.629 126.776 192.976 127.498C189.581 128.961 186.123 130.627 182.763 132.328L180.39 128.828C183.427 126.242 186.664 123.901 190.071 121.828C191.835 120.754 193.666 119.793 195.552 118.951C196.575 118.507 197.625 118.128 198.695 117.817C199.983 117.422 201.325 117.235 202.671 117.264C203.113 117.286 203.553 117.34 203.987 117.425L204.316 117.502L204.512 117.551L204.897 117.649L206.437 118.048C207.445 118.349 208.46 118.65 209.426 119.021C211.368 119.714 213.268 120.518 215.117 121.429C216.958 122.311 218.743 123.291 220.486 124.327C221.347 124.859 222.208 125.398 223.055 125.958C223.902 126.518 224.714 127.078 225.624 127.757L220.535 134.624Z" fill="#FFBE9D"/>
<path d="M228.9 128.681C227.661 125.615 215.95 121.422 215.95 121.422L212.163 131.306C212.163 131.306 216.258 134.015 219.653 136.045C226.1 139.93 231.322 134.715 228.9 128.681Z" fill="#1D3A70"/>
<path d="M183.89 130.851L181.517 135.996L177.898 131.306C177.898 131.306 180.628 126.714 182.574 128.506L183.89 130.851Z" fill="#FFBE9D"/>
<path d="M176.512 137.613L174.678 133.497L177.898 131.306L181.517 135.996L176.512 137.613Z" fill="#FFBE9D"/>
</svg>
