<svg width="179" height="132" viewBox="0 0 179 132" fill="none" xmlns="http://www.w3.org/2000/svg">
<path d="M122.046 64.2884C119.121 61.0986 116.161 57.9455 113.166 54.8299C105.708 47.082 98.0235 39.4585 89.8973 32.6292C93.226 32.6657 96.4365 33.2302 99.4556 34.241C106.559 40.9244 113.402 47.9727 120.159 55.139C121.163 58.0278 121.811 61.0969 122.046 64.2862V64.2884ZM119.218 81.2072C114.133 75.6334 108.928 70.2184 103.457 65.1726C95.9069 58.2059 81.6734 44.118 71.4 49.2518C62.1269 53.8834 61.7908 71.8796 61.2958 84.1024C58.4433 78.8931 56.9458 72.9831 56.9546 66.969C56.9546 53.6602 64.1417 42.1177 74.6493 36.4195C78.3569 37.6922 81.9687 40.0144 84.9124 41.9718C98.2944 50.8572 109.949 62.8118 121.157 75.3887C120.675 77.4062 120.023 79.3507 119.218 81.2072ZM110.041 93.6768C109.363 93.0797 108.679 92.4909 107.989 91.9105C102.746 87.5021 95.5891 81.5978 88.8523 83.2311C82.696 84.7227 80.1659 92.3891 78.7276 99.3708C76.0869 98.3918 73.5774 97.0572 71.2615 95.4002C72.0071 88.4421 73.0746 81.0741 76.1608 75.3029C80.8768 66.4883 88.9684 68.7096 95.7439 72.8733C102.589 77.08 108.816 82.6859 114.716 88.792C113.317 90.5806 111.751 92.2164 110.041 93.6747V93.6768Z" fill="white"/>
</svg>
